<mxfile host="Electron" modified="2024-04-20T10:41:56.587Z" agent="Mozilla/5.0 (Macintosh; Intel Mac OS X 10_15_7) AppleWebKit/537.36 (KHTML, like Gecko) draw.io/21.6.8 Chrome/114.0.5735.289 Electron/25.5.0 Safari/537.36" etag="qebBNPL6D5nKzJF7wtm-" version="21.6.8" type="device">
  <diagram name="Page-1" id="HGx0K5DMoAMh3n9qtSTw">
    <mxGraphModel dx="2044" dy="877" grid="1" gridSize="10" guides="1" tooltips="1" connect="1" arrows="1" fold="1" page="1" pageScale="1" pageWidth="850" pageHeight="1100" math="0" shadow="0">
      <root>
        <mxCell id="0" />
        <mxCell id="1" parent="0" />
        <mxCell id="2E0J9mty7jqj_4_4rKHY-9" value="local" style="sketch=0;outlineConnect=0;gradientColor=none;html=1;whiteSpace=wrap;fontSize=12;fontStyle=0;shape=mxgraph.aws4.group;grIcon=mxgraph.aws4.group_vpc;strokeColor=#B6BABF;fillColor=none;verticalAlign=top;align=left;spacingLeft=30;fontColor=#B6BABF;dashed=0;" vertex="1" parent="1">
          <mxGeometry x="230" y="140" width="270" height="280" as="geometry" />
        </mxCell>
        <mxCell id="2E0J9mty7jqj_4_4rKHY-3" value="" style="edgeStyle=orthogonalEdgeStyle;rounded=0;orthogonalLoop=1;jettySize=auto;html=1;entryX=0;entryY=0.5;entryDx=0;entryDy=0;exitX=0.983;exitY=0.381;exitDx=0;exitDy=0;exitPerimeter=0;" edge="1" parent="1" source="2E0J9mty7jqj_4_4rKHY-20" target="2E0J9mty7jqj_4_4rKHY-18">
          <mxGeometry relative="1" as="geometry" />
        </mxCell>
        <mxCell id="2E0J9mty7jqj_4_4rKHY-5" value="" style="edgeStyle=orthogonalEdgeStyle;rounded=0;orthogonalLoop=1;jettySize=auto;html=1;exitX=0.5;exitY=1;exitDx=0;exitDy=0;entryX=0.5;entryY=0;entryDx=0;entryDy=0;" edge="1" parent="1" source="2E0J9mty7jqj_4_4rKHY-18" target="2E0J9mty7jqj_4_4rKHY-22">
          <mxGeometry relative="1" as="geometry" />
        </mxCell>
        <mxCell id="2E0J9mty7jqj_4_4rKHY-7" value="" style="edgeStyle=orthogonalEdgeStyle;rounded=0;orthogonalLoop=1;jettySize=auto;html=1;" edge="1" parent="1" source="2E0J9mty7jqj_4_4rKHY-19" target="2E0J9mty7jqj_4_4rKHY-6">
          <mxGeometry relative="1" as="geometry" />
        </mxCell>
        <mxCell id="2E0J9mty7jqj_4_4rKHY-8" value="AWS Cloud" style="sketch=0;outlineConnect=0;gradientColor=none;html=1;whiteSpace=wrap;fontSize=12;fontStyle=0;shape=mxgraph.aws4.group;grIcon=mxgraph.aws4.group_aws_cloud;strokeColor=#858B94;fillColor=none;verticalAlign=top;align=left;spacingLeft=30;fontColor=#858B94;dashed=0;" vertex="1" parent="1">
          <mxGeometry x="520" y="140" width="360" height="280" as="geometry" />
        </mxCell>
        <mxCell id="2E0J9mty7jqj_4_4rKHY-14" style="edgeStyle=orthogonalEdgeStyle;rounded=0;orthogonalLoop=1;jettySize=auto;html=1;exitX=1;exitY=0.5;exitDx=0;exitDy=0;" edge="1" parent="1" source="2E0J9mty7jqj_4_4rKHY-6" target="2E0J9mty7jqj_4_4rKHY-13">
          <mxGeometry relative="1" as="geometry" />
        </mxCell>
        <mxCell id="2E0J9mty7jqj_4_4rKHY-6" value="store raw data in S3" style="whiteSpace=wrap;html=1;fillColor=#D5E8D4;" vertex="1" parent="1">
          <mxGeometry x="610" y="310" width="120" height="60" as="geometry" />
        </mxCell>
        <mxCell id="2E0J9mty7jqj_4_4rKHY-12" value="" style="outlineConnect=0;dashed=0;verticalLabelPosition=bottom;verticalAlign=top;align=center;html=1;shape=mxgraph.aws3.iam;fillColor=#759C3E;gradientColor=none;" vertex="1" parent="1">
          <mxGeometry x="540" y="250" width="42" height="81" as="geometry" />
        </mxCell>
        <mxCell id="2E0J9mty7jqj_4_4rKHY-13" value="gdelt.raw.events" style="outlineConnect=0;dashed=0;verticalLabelPosition=bottom;verticalAlign=top;align=center;html=1;shape=mxgraph.aws3.bucket;fillColor=#E05243;gradientColor=none;" vertex="1" parent="1">
          <mxGeometry x="790" y="308.5" width="60" height="61.5" as="geometry" />
        </mxCell>
        <mxCell id="2E0J9mty7jqj_4_4rKHY-15" value="data loader" style="rounded=1;whiteSpace=wrap;html=1;fillColor=#99CCFF;strokeColor=#23445d;" vertex="1" parent="1">
          <mxGeometry x="80" y="30" width="80" height="50" as="geometry" />
        </mxCell>
        <mxCell id="2E0J9mty7jqj_4_4rKHY-16" value="Transformer" style="rounded=1;whiteSpace=wrap;html=1;fillColor=#b0e3e6;strokeColor=#0e8088;" vertex="1" parent="1">
          <mxGeometry x="170" y="30" width="80" height="50" as="geometry" />
        </mxCell>
        <mxCell id="2E0J9mty7jqj_4_4rKHY-17" value="Data exporter" style="rounded=1;whiteSpace=wrap;html=1;fillColor=#d5e8d4;strokeColor=default;gradientColor=none;" vertex="1" parent="1">
          <mxGeometry x="260" y="30" width="80" height="50" as="geometry" />
        </mxCell>
        <mxCell id="2E0J9mty7jqj_4_4rKHY-18" value="download raw file" style="rounded=1;whiteSpace=wrap;html=1;fillColor=#99CCFF;strokeColor=#23445d;" vertex="1" parent="1">
          <mxGeometry x="333.25" y="205" width="116.75" height="50" as="geometry" />
        </mxCell>
        <mxCell id="2E0J9mty7jqj_4_4rKHY-19" value="map fields subset" style="rounded=1;whiteSpace=wrap;html=1;fillColor=#b0e3e6;strokeColor=#0e8088;" vertex="1" parent="1">
          <mxGeometry x="333" y="357" width="115" height="50" as="geometry" />
        </mxCell>
        <mxCell id="2E0J9mty7jqj_4_4rKHY-20" value="GDELT Event CSV zip" style="shape=document;whiteSpace=wrap;html=1;boundedLbl=1;" vertex="1" parent="1">
          <mxGeometry x="70" y="200" width="120" height="80" as="geometry" />
        </mxCell>
        <mxCell id="2E0J9mty7jqj_4_4rKHY-21" value="http://data.gdeltproject.org/events/index.html" style="text;html=1;align=center;verticalAlign=middle;resizable=0;points=[];autosize=1;strokeColor=none;fillColor=none;" vertex="1" parent="1">
          <mxGeometry x="-30" y="285" width="260" height="30" as="geometry" />
        </mxCell>
        <mxCell id="2E0J9mty7jqj_4_4rKHY-23" style="edgeStyle=orthogonalEdgeStyle;rounded=0;orthogonalLoop=1;jettySize=auto;html=1;entryX=0.5;entryY=0;entryDx=0;entryDy=0;" edge="1" parent="1" source="2E0J9mty7jqj_4_4rKHY-22" target="2E0J9mty7jqj_4_4rKHY-19">
          <mxGeometry relative="1" as="geometry" />
        </mxCell>
        <mxCell id="2E0J9mty7jqj_4_4rKHY-22" value="extract csv file" style="rounded=1;whiteSpace=wrap;html=1;fillColor=#99CCFF;strokeColor=#0e8088;" vertex="1" parent="1">
          <mxGeometry x="333.25" y="280" width="115" height="50" as="geometry" />
        </mxCell>
        <mxCell id="2E0J9mty7jqj_4_4rKHY-24" value="io_config.yaml" style="shape=document;whiteSpace=wrap;html=1;boundedLbl=1;" vertex="1" parent="1">
          <mxGeometry x="120" y="370" width="100" height="50" as="geometry" />
        </mxCell>
      </root>
    </mxGraphModel>
  </diagram>
</mxfile>
